<?xml version="1.0" standalone="no"?>
<!DOCTYPE svg PUBLIC "-//W3C//DTD SVG 20010904//EN"
 "http://www.w3.org/TR/2001/REC-SVG-20010904/DTD/svg10.dtd">
<svg version="1.0" xmlns="http://www.w3.org/2000/svg"
 width="378.000000pt" height="378.000000pt" viewBox="0 0 378.000000 378.000000"
 preserveAspectRatio="xMidYMid meet">
<metadata>
Created by potrace 1.11, written by Peter Selinger 2001-2013
</metadata>
<g transform="translate(0.000000,378.000000) scale(0.100000,-0.100000)"
fill="#000000" stroke="none">
<path d="M73 3700 c-37 -22 -58 -59 -67 -115 -8 -55 18 -405 32 -432 7 -11 26
-30 44 -41 42 -25 190 -36 342 -24 l110 9 38 43 38 43 0 201 c0 174 -3 206
-19 241 -32 71 -48 78 -179 86 -220 14 -303 11 -339 -11z"/>
<path d="M3319 3711 c-58 -8 -92 -30 -113 -74 -13 -29 -16 -70 -16 -242 l0
-207 39 -39 39 -39 200 0 200 0 32 27 c17 14 36 38 41 51 14 36 42 396 35 437
-4 21 -20 45 -42 64 l-35 31 -167 -1 c-92 -1 -188 -5 -213 -8z"/>
<path d="M1153 3699 c-39 -11 -80 -59 -88 -103 -7 -33 10 -339 21 -404 7 -35
50 -78 89 -88 44 -11 368 1 392 14 49 27 56 62 61 282 4 203 4 205 -20 240
-13 19 -35 40 -48 46 -32 15 -364 25 -407 13z"/>
<path d="M2246 3690 c-27 -5 -51 -19 -73 -44 l-33 -36 1 -172 c0 -223 7 -263
49 -301 l32 -29 187 4 c163 3 190 5 214 22 15 10 32 27 38 38 5 10 17 94 25
185 22 254 3 317 -103 334 -60 10 -285 9 -337 -1z"/>
<path d="M708 2567 c-53 -15 -74 -34 -244 -208 -218 -225 -302 -319 -323 -363
-24 -49 -27 -153 -11 -421 5 -88 14 -333 20 -545 6 -212 15 -410 21 -440 10
-54 13 -57 192 -233 206 -202 217 -211 248 -202 l22 7 -9 662 c-5 363 -9 756
-9 871 l0 210 28 48 c18 31 42 54 70 69 41 21 56 22 512 30 259 5 774 7 1145
6 l675 -3 43 -24 c31 -19 49 -39 69 -79 l26 -54 -2 -262 c-1 -143 -6 -432 -11
-641 -15 -574 -13 -810 4 -825 9 -7 21 -8 30 -3 42 23 367 340 382 372 20 41
27 138 44 666 6 187 15 418 21 513 11 194 6 229 -42 299 -49 71 -451 483 -499
511 l-45 27 -965 6 c-531 4 -1050 9 -1155 13 -145 5 -201 3 -237 -7z"/>
<path d="M1730 1479 c-30 -11 -515 -501 -539 -544 -14 -27 -16 -73 -14 -410 2
-209 3 -390 3 -402 0 -13 9 -32 20 -43 18 -18 33 -20 188 -20 129 0 173 3 188
14 18 14 19 33 24 434 l5 420 30 43 c53 75 78 84 245 84 166 0 200 -11 254
-78 l31 -39 5 -422 c4 -338 8 -426 19 -439 12 -15 38 -17 192 -17 174 0 179 1
190 22 9 16 14 138 17 414 5 386 4 393 -17 435 -30 61 -483 523 -533 544 -43
17 -265 20 -308 4z"/>
</g>
</svg>
